Coordinates
version=1
nRows=13
nColumns=63
inDegrees=yes

Units are S.I. units (second, meters, Newtons, ...)
If the header above contains a line with 'inDegrees', this indicates whether rotational values are in degrees (yes) or radians (no).

endheader
time	pelvis_tilt	pelvis_list	pelvis_rotation	pelvis_tx	pelvis_ty	pelvis_tz	hip_flexion_r	hip_adduction_r	hip_rotation_r	knee_angle_r	knee_angle_r_beta	ankle_angle_r	subtalar_angle_r	mtp_angle_r	hip_flexion_l	hip_adduction_l	hip_rotation_l	knee_angle_l	knee_angle_l_beta	ankle_angle_l	subtalar_angle_l	mtp_angle_l	L5_S1_Flex_Ext	L5_S1_Lat_Bending	L5_S1_axial_rotation	L4_L5_Flex_Ext	L4_L5_Lat_Bending	L4_L5_axial_rotation	L3_L4_Flex_Ext	L3_L4_Lat_Bending	L3_L4_axial_rotation	L2_L3_Flex_Ext	L2_L3_Lat_Bending	L2_L3_axial_rotation	L1_L2_Flex_Ext	L1_L2_Lat_Bending	L1_L2_axial_rotation	L1_T12_Flex_Ext	L1_T12_Lat_Bending	L1_T12_axial_rotation	Abs_r3	Abs_r2	Abs_r1	Abs_t1	Abs_t2	neck_flexion	neck_bending	neck_rotation	arm_flex_r	arm_add_r	arm_rot_r	elbow_flex_r	pro_sup_r	wrist_flex_r	wrist_dev_r	arm_flex_l	arm_add_l	arm_rot_l	elbow_flex_l	pro_sup_l	wrist_flex_l	wrist_dev_l
7.550000	2.773928	5.336499	93.424301	0.127831	1.025139	0.152437	3.463003	-1.880754	-19.617076	21.352739	0.372676	29.720594	13.448604	0.000000	1.912909	-3.651585	-12.532693	17.820116	0.311020	28.012020	15.810859	0.000000	-0.280516	0.717101	1.624514	-0.520947	0.953745	1.726046	-0.460860	1.743560	1.726046	-0.320602	1.743560	1.421450	-0.260488	1.462313	1.319917	-0.160287	1.110790	1.218385	-2.003700	8.111995	9.035058	0.000000	0.000000	-7.931894	-2.109443	-29.882668	14.231457	-32.569148	-53.288940	70.895676	84.673460	-17.279015	7.568446	59.232632	-22.036301	130.877759	0.166996	1.534007	-69.567835	-9.934029
7.566667	2.814611	5.259490	93.666441	0.128867	1.024957	0.151003	3.178394	-1.764500	-20.064191	20.931169	0.365318	29.693434	14.107802	0.000000	1.650748	-3.738140	-12.415849	17.335521	0.302562	27.718877	15.763289	0.000000	-0.254327	0.718667	1.426585	-0.472310	0.955827	1.515747	-0.417833	1.747366	1.515747	-0.290670	1.747366	1.248262	-0.236168	1.465505	1.159100	-0.145322	1.113215	1.069939	-1.816631	8.129701	7.934238	0.000000	0.000000	-7.223631	-2.336057	-29.037313	14.735251	-32.313855	-52.977292	70.066285	83.273278	-16.602300	7.175905	58.242127	-23.838104	128.932065	0.172338	1.613524	-69.547488	-8.593005
7.583333	2.807362	5.257933	93.859301	0.130065	1.024886	0.149684	2.782345	-1.667375	-20.422973	20.441517	0.356772	29.573099	14.684672	0.000000	1.297311	-3.788748	-12.349825	16.829198	0.293725	27.365909	15.710450	0.000000	-0.234614	0.711976	1.297734	-0.435702	0.946928	1.378843	-0.385448	1.731099	1.378843	-0.268141	1.731099	1.135518	-0.217863	1.451862	1.054409	-0.134059	1.102851	0.973301	-1.675826	8.054017	7.217610	0.000000	0.000000	-6.778923	-2.490619	-28.716175	14.836388	-31.932321	-52.352877	70.139816	81.971703	-15.948185	6.853832	57.536862	-24.993514	127.877003	0.175073	1.668284	-69.530801	-7.655903
7.600000	2.762809	5.335554	93.994144	0.131400	1.024966	0.148560	2.273805	-1.575432	-20.684939	19.872762	0.346845	29.331345	15.186942	0.000000	0.858136	-3.814135	-12.335246	16.302338	0.284529	26.956964	15.658806	0.000000	-0.220988	0.699877	1.241725	-0.410398	0.930836	1.319333	-0.363062	1.701680	1.319333	-0.252568	1.701680	1.086510	-0.205210	1.427189	1.008902	-0.126273	1.084109	0.931294	-1.578498	7.917146	6.906104	0.000000	0.000000	-6.641898	-2.568856	-28.902989	14.522905	-31.416142	-51.346353	71.102558	80.836937	-15.310668	6.485473	57.091512	-25.439693	127.713366	0.175192	1.700904	-69.518131	-7.234509
7.616667	2.689350	5.500880	94.069451	0.132799	1.025245	0.147701	1.651492	-1.491673	-20.852286	19.234561	0.335706	28.973544	15.613802	0.000000	0.333931	-3.810078	-12.336525	15.758715	0.275041	26.492693	15.580144	0.000000	-0.214180	0.685413	1.267564	-0.397754	0.911600	1.346787	-0.351877	1.666514	1.346787	-0.244787	1.666514	1.109118	-0.198888	1.397695	1.029896	-0.122383	1.061705	0.950673	-1.529868	7.753533	7.049810	0.000000	0.000000	-6.792796	-2.535721	-29.599071	13.723351	-30.752111	-49.958306	72.960606	79.836126	-14.792604	6.078225	56.859583	-25.083225	128.468852	0.172853	1.709440	-69.510290	-7.321098
7.633333	2.600940	5.755088	94.054325	0.134200	1.025768	0.147201	0.931660	-1.416649	-20.909157	18.541114	0.323603	28.497313	15.989643	0.000000	-0.272280	-3.778014	-12.361275	15.199188	0.265276	25.966568	15.445299	0.000000	-0.214327	0.672229	1.382070	-0.398026	0.894064	1.468449	-0.352117	1.634457	1.468449	-0.244954	1.634457	1.209311	-0.199024	1.370809	1.122931	-0.122466	1.041283	1.036552	-1.530913	7.604388	7.686656	0.000000	0.000000	-7.212853	-2.394517	-30.769283	12.425192	-29.947621	-48.197684	75.662459	78.924390	-14.278351	5.792801	56.766242	-23.872670	130.161245	0.168417	1.692004	-69.508300	-7.906821
7.650000	2.514017	6.101185	93.924507	0.135535	1.026586	0.147134	0.132259	-1.345156	-20.806130	17.813663	0.310907	27.898417	16.292862	0.000000	-0.961114	-3.722830	-12.414235	14.628282	0.255312	25.384781	15.227397	0.000000	-0.222574	0.663519	1.582306	-0.413343	0.882480	1.681200	-0.365667	1.613280	1.681200	-0.254380	1.613280	1.384518	-0.206682	1.353048	1.285624	-0.127179	1.027791	1.186729	-1.589825	7.505860	8.800311	0.000000	0.000000	-7.863189	-2.151859	-32.329605	10.678623	-29.048796	-46.032655	79.096549	78.058674	-13.660801	5.827317	56.727930	-21.812208	132.813828	0.162274	1.650924	-69.512761	-8.937505
7.666667	2.461582	6.533832	93.678024	0.136690	1.027732	0.147510	-0.736894	-1.254055	-20.530388	17.050056	0.297580	27.171086	16.519861	0.000000	-1.725969	-3.666032	-12.481593	14.050273	0.245224	24.762532	14.910353	0.000000	-0.238546	0.663862	1.852966	-0.443003	0.882936	1.968777	-0.391906	1.614114	1.968777	-0.272634	1.614114	1.621346	-0.221513	1.353747	1.505535	-0.136305	1.028322	1.389725	-1.703907	7.509739	10.305643	0.000000	0.000000	-8.691251	-1.825900	-34.154514	8.602191	-28.131928	-43.435618	83.096854	77.246239	-12.780740	6.335820	56.651760	-18.968247	136.393730	0.154831	1.588017	-69.523655	-10.407584
7.683333	2.464866	7.033973	93.309115	0.137589	1.029199	0.148268	-1.650322	-1.130200	-20.062137	16.257937	0.283755	26.344857	16.668481	0.000000	-2.551810	-3.620795	-12.569746	13.468459	0.235069	24.117690	14.488227	0.000000	-0.260344	0.675271	2.176696	-0.483485	0.898111	2.312740	-0.427719	1.641855	2.312740	-0.297547	1.641855	1.904609	-0.241755	1.377013	1.768566	-0.148761	1.045995	1.632522	-1.859612	7.638805	12.106133	0.000000	0.000000	-9.657567	-1.436483	-36.140146	6.337143	-27.267761	-40.406299	87.458933	76.526982	-11.545371	7.366308	56.454573	-15.456705	140.864999	0.146500	1.490741	-69.540197	-12.338915
7.700000	2.554485	7.581681	92.810480	0.138170	1.030944	0.149375	-2.573845	-0.951279	-19.400454	15.460792	0.269842	25.436670	16.748860	0.000000	-3.417642	-3.615919	-12.700126	12.901436	0.225173	23.486435	13.977982	0.000000	-0.288341	0.701363	2.530558	-0.535477	0.932812	2.688718	-0.473715	1.705293	2.688718	-0.329544	1.705293	2.214238	-0.267753	1.430218	2.056078	-0.164758	1.086411	1.897918	-2.059588	7.933953	14.074203	0.000000	0.000000	-10.699403	-1.052576	-38.139965	4.075410	-26.568971	-36.906571	91.958008	75.985361	-10.085705	8.873938	56.079200	-11.418466	145.960761	0.137881	1.387527	-69.561064	-14.676907
7.716667	2.719301	8.148380	92.201776	0.138468	1.032883	0.150719	-3.478112	-0.728997	-18.553760	14.668663	0.256016	24.504736	16.761472	0.000000	-4.296282	-3.643723	-12.877598	12.355312	0.215641	22.886496	13.403679	0.000000	-0.321266	0.738931	2.893219	-0.596624	0.982778	3.074046	-0.527809	1.796636	3.074046	-0.367175	1.796636	2.531567	-0.298328	1.506828	2.350741	-0.183572	1.144604	2.169914	-2.294774	8.358933	16.091218	0.000000	0.000000	-11.747991	-0.668326	-40.037749	1.967303	-26.059943	-32.988212	96.338533	75.657419	-8.593566	10.642993	55.510396	-7.027803	151.507432	0.129512	1.265458	-69.584438	-17.401652
7.733333	2.942792	8.707206	91.512397	0.138559	1.034914	0.152123	-4.337054	-0.479610	-17.573179	13.906741	0.242718	23.607139	16.761771	0.000000	-5.161123	-3.699793	-13.092624	11.846989	0.206769	22.351209	12.810526	0.000000	-0.357229	0.784691	3.245668	-0.663409	1.043639	3.448522	-0.586891	1.907898	3.448522	-0.408277	1.907898	2.839959	-0.331723	1.600142	2.637105	-0.204120	1.215487	2.434251	-2.551649	8.876585	18.051431	0.000000	0.000000	-12.753080	-0.280993	-41.665165	0.104535	-25.700426	-28.810079	100.435891	76.004344	-7.337056	12.551630	54.761597	-2.469468	157.237320	0.122074	1.142338	-69.608258	-20.345481
7.750000	3.201141	9.229590	90.768076	0.138541	1.036925	0.153470	-5.124657	-0.223574	-16.491546	13.187938	0.230173	22.780756	16.757021	0.000000	-5.986090	-3.768823	-13.336538	11.377281	0.198571	21.881219	12.200223	0.000000	-0.395325	0.834666	3.571578	-0.734158	1.110105	3.794802	-0.649479	2.029406	3.794802	-0.451817	2.029406	3.125131	-0.367099	1.702050	2.901907	-0.225889	1.292897	2.678684	-2.823766	9.441906	19.864046	0.000000	0.000000	-13.639515	0.100546	-42.867389	-1.423132	-25.481383	-24.493829	104.078920	76.312893	-6.490008	14.490020	53.888925	2.065225	162.923071	0.115632	1.027398	-69.632892	-23.193967
